<svg xmlns="http://www.w3.org/2000/svg"  viewBox="0 0 64 64"><defs fill="#55534E" /><path  d="m48.87,32c5.42-4.95,8.52-10.01,6.51-13.5-2.01-3.49-7.95-3.33-14.95-1.11-1.57-7.17-4.41-12.39-8.44-12.39s-6.86,5.22-8.44,12.39c-6.99-2.22-12.93-2.38-14.95,1.11-2.01,3.49,1.09,8.55,6.51,13.5-5.42,4.95-8.52,10.01-6.51,13.5,2.01,3.49,7.95,3.33,14.95,1.11,1.57,7.17,4.41,12.39,8.44,12.39s6.86-5.22,8.44-12.39c6.99,2.22,12.93,2.38,14.95-1.11,2.01-3.49-1.09-8.55-6.51-13.5Zm1.32-10.5c.9,1.56-1.31,4.35-5,7.42-1.11-.86-2.29-1.7-3.49-2.52-.1-1.45-.25-2.89-.43-4.28,4.51-1.66,8.03-2.18,8.93-.62Zm-15.74,14.74c-.81.47-1.63.92-2.45,1.36-.82-.44-1.64-.89-2.45-1.36-.81-.47-1.61-.95-2.41-1.44-.03-.93-.04-1.87-.04-2.8s.01-1.87.04-2.8c.79-.49,1.6-.97,2.41-1.44.81-.47,1.63-.92,2.45-1.36.82.44,1.64.89,2.45,1.36.81.47,1.61.95,2.41,1.44.03.93.04,1.87.04,2.8s-.01,1.87-.04,2.8c-.79.49-1.6.97-2.41,1.44Zm-2.45-25.24c1.8,0,3.11,3.3,3.93,8.04-1.3.54-2.61,1.13-3.93,1.77-1.31-.64-2.63-1.23-3.93-1.77.81-4.74,2.13-8.04,3.93-8.04Zm-18.19,10.5c.9-1.56,4.42-1.04,8.93.62-.19,1.39-.33,2.83-.43,4.28-1.21.82-2.38,1.66-3.49,2.52-3.7-3.07-5.9-5.86-5-7.42Zm0,21c-.9-1.56,1.31-4.35,5-7.42,1.11.86,2.29,1.7,3.49,2.52.1,1.45.25,2.89.43,4.28-4.51,1.66-8.03,2.18-8.93.62Zm18.19,10.5c-1.8,0-3.11-3.3-3.93-8.04,1.3-.54,2.61-1.13,3.93-1.77,1.31.64,2.63,1.23,3.93,1.77-.81,4.74-2.13,8.04-3.93,8.04Zm18.19-10.5c-.9,1.56-4.42,1.04-8.93-.62.19-1.39.33-2.83.43-4.28,1.21-.82,2.38-1.66,3.49-2.52,3.7,3.07,5.9,5.86,5,7.42Z" fill="#55534E" /></svg>