<svg xmlns="http://www.w3.org/2000/svg"  viewBox="0 0 64 64"><defs fill="#55534E" /><path  d="m58,30v4l-24,24h-4L6,34v-4l15.59-15.59,5.77,5.77c-.22.56-.35,1.18-.35,1.82,0,2.05,1.24,3.81,3,4.58v14.84c-1.76.77-3,2.53-3,4.58,0,2.76,2.24,5,5,5s5-2.24,5-5c0-2.05-1.24-3.81-3-4.58v-14.59l5.35,5.35c-.22.56-.35,1.18-.35,1.82,0,2.76,2.24,5,5,5s5-2.24,5-5-2.24-5-5-5c-.64,0-1.25.13-1.82.35l-5.53-5.53c.22-.56.35-1.18.35-1.82,0-2.76-2.24-5-5-5-.64,0-1.25.13-1.82.35l-5.77-5.77,5.59-5.59h4l24,24Z" fill="#55534E" /></svg>